<svg xmlns="http://www.w3.org/2000/svg" width="64" height="64" viewBox="0 0 64 64" fill="none">
  <defs>
    <linearGradient id="bg" x1="0" y1="0" x2="64" y2="64" gradientUnits="userSpaceOnUse">
      <stop offset="0" stop-color="#278C94"/>
      <stop offset="1" stop-color="#1E6B74"/>
    </linearGradient>
    <radialGradient id="sheen" cx="0.3" cy="0.3" r="0.6">
      <stop offset="0" stop-color="#ffffff" stop-opacity="0.28"/>
      <stop offset="1" stop-color="#ffffff" stop-opacity="0"/>
    </radialGradient>
  </defs>
  <rect x="2" y="2" width="60" height="60" rx="14" fill="url(#bg)"/>
  <rect x="2" y="2" width="60" height="60" rx="14" fill="url(#sheen)"/>
  <g transform="translate(32 32) scale(1.55) translate(-12 -12)" fill="none" stroke="#ffffff" stroke-width="1.8" stroke-linecap="round" stroke-linejoin="round">
    <path d="M2 20a3 3 0 0 0 5 0 3 3 0 0 0 5 0 3 3 0 0 0 5 0 3 3 0 0 0 5 0"/>
    <path d="M3 16l1.5-5h15L21 16"/>
    <path d="M12 11V4"/>
    <path d="M6 11V7h12v4"/>
  </g>
</svg>
